<svg role="img" viewBox="0 -38 256 256" xmlns="http://www.w3.org/2000/svg" preserveAspectRatio="xMidYMid">
  <g>
    <path d="M106.553 159.611c8.248 8.594 19.731 13.924 32.431 13.924 16.882 0 31.611-9.414 39.454-23.389 6.816 3.046 14.361 4.74 22.299 4.74 30.449 0 55.134-24.9 55.134-55.615 0-30.718-24.685-55.619-55.134-55.619-3.716 0-7.348.371-10.86 1.082-6.907-12.321-20.069-20.646-35.177-20.646-6.324 0-12.306 1.461-17.632 4.058-6.992-16.47-23.306-28.019-42.319-28.019-19.8 0-36.675 12.529-43.152 30.1-2.831-.601-5.763-.915-8.773-.915-23.574 0-42.685 19.308-42.685 43.131 0 15.964 8.587 29.902 21.345 37.36-2.627 6.044-4.088 12.714-4.088 19.727 0 27.396 22.241 49.604 49.674 49.604 16.106 0 30.42-7.658 39.494-19.524z" fill="#00A1E0" transform="translate(128 89.631) scale(1 -1) translate(-128 -89.631)"/>
  </g>
</svg>
