<svg role="img" viewBox="0 0 256 256" xmlns="http://www.w3.org/2000/svg">
  <path fill="#FF4A00" fill-rule="nonzero" d="M128.08 0c7.231.013 14.342.624 21.256 1.78V1.78l.001 74.52 52.831-52.695c5.835 4.144 11.294 8.754 16.341 13.788 5.05 5.035 9.685 10.494 13.839 16.312l.001.001-52.834 52.695h74.715c1.159 6.894 1.772 13.961 1.772 21.187v.173c0 7.226-.613 14.306-1.772 21.2h-74.715l52.834 52.682c-4.154 5.818-8.789 11.278-13.824 16.312l-.016.001c-4.947 5.034-10.405 9.657-16.225 13.788l-52.833-52.695v74.52c-6.9 1.156-13.812 1.766-20.725 1.781l-.185.001c-6.234-.015-13.317-.625-20.23-1.781V179.047l-52.831 52.696c-11.668-8.276-21.868-18.464-30.18-30.1l52.834-52.682H1.785C.613 142.052 0 134.946 0 127.72v-.173c.012-1.875.135-4.166.311-6.536l.054-.813c.522-6.671 1.419-13.7 1.419-13.7h74.715L23.666 53.705c4.142-5.818 8.764-11.264 13.811-16.285l.025-.027c5.037-5.034 10.509-9.644 16.344-13.788l.001-.001 52.831 52.695V1.78C113.59.624 120.689.014 127.933 0h.147zM128.067 95.76h-.122c-9.509 0-18.616 1.74-27.035 4.902-3.155 8.382-4.902 17.468-4.915 26.952v.12c.012 9.484 1.759 18.57 4.927 26.952 8.406 3.161 17.513 4.902 27.022 4.902h.122c9.509 0 18.616-1.741 26.022-4.902 3.168-8.395 4.915-17.484 4.915-26.968v-.12c-.012-9.484-1.759-18.57-4.927-26.952-8.406-3.161-17.513-4.902-27.022-4.902z"/>
</svg>
